<svg xmlns="http://www.w3.org/2000/svg" width="40" height="40" viewBox="0 0 40 40">
    <g fill="none" fill-rule="evenodd">
        <g>
            <g>
                <g>
                    <path d="M0 0L40 0 40 40 0 40z" transform="translate(-121 -562) translate(24 552) translate(97 10)"/>
                    <g fill="#222" fill-rule="nonzero">
                        <g>
                            <path d="M21.087 3.283h-2.499l-1.38-2.049C16.688.466 15.777.005 14.84.005H9.112c-.937 0-1.849.461-2.37 1.23L5.364 3.282h-2.5C1.277 3.283 0 4.538 0 6.1v9.937c0 1.562 1.276 2.817 2.864 2.817h18.223c1.589 0 2.864-1.255 2.864-2.817V6.1c0-1.562-1.275-2.817-2.864-2.817zM11.976 16.55c-3.567 0-6.457-2.843-6.457-6.351 0-3.509 2.89-6.326 6.457-6.326 3.566 0 6.456 2.843 6.456 6.351 0 3.483-2.89 6.326-6.456 6.326zm8.747-9.296H19.577c-.468-.026-.833-.41-.807-.871.026-.435.365-.768.807-.794h1.042c.468-.025.859.333.885.794.026.461-.312.845-.781.87z" transform="translate(-121 -562) translate(24 552) translate(97 10) translate(8 9)"/>
                            <path d="M11.976 6.69c-1.979 0-3.593 1.587-3.593 3.533 0 1.947 1.614 3.509 3.593 3.509 1.978 0 3.592-1.588 3.592-3.534 0-1.946-1.614-3.509-3.592-3.509z" transform="translate(-121 -562) translate(24 552) translate(97 10) translate(8 9)"/>
                        </g>
                    </g>
                </g>
            </g>
        </g>
    </g>
</svg>



<svg xmlns='http://www.w3.org/2000/svg' viewBox='0 0 60 60'>
    <polygon fill='rgba(23, 114, 248, 0.999)' points='20.62 55.62 45.74 30.5 20.62 5.38 16.38 9.62 37.26 30.5 16.38 51.38 20.62 55.62'/>
</svg>